<svg width="458" height="213" viewBox="0 0 458 213" fill="none" xmlns="http://www.w3.org/2000/svg">
<ellipse cx="316.5" cy="106.5" rx="141.5" ry="106.5" fill="#514EFF"/>
<path d="M430.395 211.274C418.707 199.669 396.04 193.615 385.761 182.732C389.733 163.3 433.424 123.822 433.424 158.629C433.424 208.121 432.027 212.895 430.395 211.274Z" fill="#514EFF"/>
<path d="M9.68414 133.852C7.59189 133.852 5.91809 133.284 4.66273 132.148C3.43727 130.982 2.82454 129.428 2.82454 127.485C2.82454 126.32 3.12343 124.885 3.72122 123.181L21.3858 75.0745C22.3423 72.4442 23.6425 70.5164 25.2864 69.2909C26.9303 68.0356 29.0225 67.4079 31.5631 67.4079C34.1934 67.4079 36.3305 68.0206 37.9744 69.2461C39.6482 70.4416 40.9633 72.3695 41.9198 75.0297L59.674 123.181C60.2419 124.765 60.5259 126.2 60.5259 127.485C60.5259 129.339 59.8833 130.863 58.598 132.058C57.3427 133.254 55.7286 133.852 53.7559 133.852C51.843 133.852 50.3336 133.389 49.2277 132.462C48.1517 131.535 47.3148 130.011 46.717 127.889L43.3096 117.667H19.9511L16.5437 127.754C15.9161 129.906 15.0642 131.461 13.9882 132.417C12.9122 133.374 11.4775 133.852 9.68414 133.852ZM22.9102 107.176H40.1712L31.608 80.6787H31.2941L22.9102 107.176ZM74.7203 77.0024C73.3753 78.3175 71.7164 78.975 69.7437 78.975C67.771 78.975 66.1122 78.3175 64.7672 77.0024C63.4222 75.6872 62.7496 74.0881 62.7496 72.2051C62.7496 70.2922 63.4222 68.6931 64.7672 67.4079C66.1122 66.0928 67.771 65.4352 69.7437 65.4352C71.7164 65.4352 73.3753 66.0928 74.7203 67.4079C76.0653 68.6931 76.7378 70.2922 76.7378 72.2051C76.7378 74.0881 76.0653 75.6872 74.7203 77.0024ZM64.9465 85.745C66.172 84.5494 67.771 83.9516 69.7437 83.9516C71.7164 83.9516 73.2856 84.5494 74.4513 85.745C75.6469 86.9406 76.2447 88.6293 76.2447 90.8112V135.78C76.2447 140.263 75.0192 143.76 72.5683 146.271C70.1473 148.782 66.7996 150.037 62.5255 150.037H62.3013C59.7906 150.037 57.8328 149.559 56.4281 148.602C55.0233 147.646 54.3209 146.301 54.3209 144.567C54.3209 142.146 55.7555 140.667 58.6249 140.129L59.2078 140.039C60.6126 139.8 61.6138 139.277 62.2116 138.47C62.8393 137.663 63.1531 136.497 63.1531 134.973V90.8112C63.1531 88.6293 63.7509 86.9406 64.9465 85.745ZM94.7432 133.762C90.1103 133.762 86.2696 132.402 83.2208 129.682C80.1721 126.962 78.6478 123.465 78.6478 119.191C78.6478 114.827 80.2618 111.405 83.4898 108.924C86.7179 106.443 91.3507 105.024 97.3884 104.665L109.494 103.948V100.764C109.494 98.5526 108.761 96.819 107.297 95.5636C105.862 94.3083 103.904 93.6806 101.423 93.6806C99.4209 93.6806 97.7321 94.0542 96.3572 94.8014C94.9823 95.5487 93.5625 96.8638 92.098 98.7468C90.6633 100.361 88.9297 101.168 86.8972 101.168C85.3131 101.168 83.998 100.705 82.9518 99.778C81.9356 98.8216 81.4275 97.611 81.4275 96.1465C81.4275 95.1601 81.6517 94.1738 82.1 93.1874C83.2059 90.318 85.5522 88.0614 89.1389 86.4175C92.7256 84.7437 97.0148 83.9068 102.006 83.9068C108.163 83.9068 113.095 85.3714 116.801 88.3005C120.508 91.2297 122.361 95.1153 122.361 99.9574V127.351C122.361 129.473 121.778 131.102 120.612 132.238C119.447 133.374 117.907 133.942 115.994 133.942C114.171 133.942 112.692 133.448 111.556 132.462C110.45 131.446 109.837 129.996 109.718 128.113V125.647H109.449C108.134 128.158 106.116 130.146 103.396 131.61C100.706 133.045 97.8218 133.762 94.7432 133.762ZM99.0472 124.302C101.947 124.302 104.412 123.465 106.445 121.792C108.477 120.088 109.494 117.951 109.494 115.38V111.883L99.3611 112.511C96.9102 112.69 95.0122 113.303 93.6672 114.349C92.352 115.395 91.6945 116.77 91.6945 118.474C91.6945 120.267 92.367 121.687 93.712 122.733C95.057 123.779 96.8354 124.302 99.0472 124.302ZM137.542 132.193C136.346 133.359 134.762 133.942 132.789 133.942C130.817 133.942 129.232 133.359 128.037 132.193C126.841 130.997 126.244 129.309 126.244 127.127V90.5422C126.244 88.5097 126.796 86.9107 127.902 85.745C129.038 84.5494 130.592 83.9516 132.565 83.9516C134.538 83.9516 136.122 84.5494 137.318 85.745C138.513 86.9406 139.111 88.5546 139.111 90.5871V93.2771H139.38C142.01 87.1199 146.942 84.0413 154.175 84.0413C159.495 84.0413 163.605 85.6254 166.504 88.7937C169.404 91.962 170.853 96.3706 170.853 102.02V127.127C170.853 129.309 170.256 130.997 169.06 132.193C167.864 133.359 166.28 133.942 164.308 133.942C162.335 133.942 160.751 133.359 159.555 132.193C158.36 130.997 157.762 129.309 157.762 127.127V104.755C157.762 101.586 157.015 99.1503 155.52 97.4467C154.026 95.743 151.829 94.8911 148.93 94.8911C146.03 94.8911 143.699 95.8625 141.935 97.8053C140.202 99.7481 139.335 102.289 139.335 105.427V127.127C139.335 129.309 138.737 130.997 137.542 132.193Z" fill="#DF25AB"/>
<path d="M244.297 134.053C234.912 134.053 227.529 131.158 222.15 125.369C216.799 119.551 214.124 111.54 214.124 101.336C214.124 91.1912 216.799 83.2095 222.15 77.3914C227.529 71.544 234.795 68.6203 243.946 68.6203C249.852 68.6203 255.012 69.8775 259.427 72.3918C263.842 74.9062 267.131 78.4439 269.294 83.0049C270.171 84.6714 270.61 86.3232 270.61 87.9605C270.61 89.6855 270.069 91.0742 268.987 92.1268C267.935 93.1501 266.531 93.6617 264.777 93.6617C263.286 93.6617 262.044 93.3255 261.05 92.653C260.055 91.9514 259.193 90.8257 258.462 89.2762C257.029 86.0893 255.071 83.6773 252.585 82.04C250.13 80.4028 247.294 79.5841 244.077 79.5841C239.078 79.5841 235.087 81.543 232.105 85.4608C229.123 89.3785 227.632 94.6558 227.632 101.293C227.632 108.046 229.108 113.382 232.061 117.3C235.014 121.188 239.034 123.133 244.121 123.133C250.992 123.133 255.831 120.004 258.637 113.747C259.31 112.256 260.099 111.189 261.006 110.546C261.912 109.903 263.067 109.581 264.47 109.581C266.341 109.581 267.832 110.122 268.943 111.204C270.084 112.286 270.654 113.704 270.654 115.458C270.654 116.832 270.318 118.308 269.645 119.887C267.657 124.302 264.426 127.767 259.953 130.281C255.48 132.795 250.261 134.053 244.297 134.053ZM285.898 132.211C284.729 133.351 283.179 133.921 281.249 133.921C279.32 133.921 277.77 133.351 276.601 132.211C275.431 131.041 274.846 129.389 274.846 127.255V75.3302C274.846 73.2836 275.402 71.6755 276.513 70.5061C277.624 69.3366 279.173 68.7519 281.162 68.7519C283.12 68.7519 284.655 69.3366 285.766 70.5061C286.877 71.6463 287.433 73.2543 287.433 75.3302V94.3634H287.696C288.953 91.3812 290.839 89.1008 293.353 87.522C295.897 85.9139 298.938 85.1099 302.475 85.1099C307.65 85.1099 311.67 86.6887 314.536 89.8463C317.43 92.9746 318.877 97.2725 318.877 102.74V127.255C318.877 129.389 318.292 131.041 317.123 132.211C315.954 133.351 314.404 133.921 312.474 133.921C310.545 133.921 308.995 133.351 307.826 132.211C306.656 131.041 306.071 129.389 306.071 127.255V105.459C306.071 102.389 305.311 100.006 303.791 98.3104C302.3 96.5854 300.122 95.7229 297.257 95.7229C294.274 95.7229 291.921 96.6877 290.196 98.6174C288.5 100.518 287.652 103.032 287.652 106.161V127.255C287.652 129.389 287.067 131.041 285.898 132.211ZM336.49 133.746C331.958 133.746 328.201 132.415 325.219 129.755C322.237 127.094 320.745 123.673 320.745 119.493C320.745 115.224 322.324 111.876 325.482 109.45C328.639 107.023 333.171 105.634 339.077 105.283L350.918 104.582V101.468C350.918 99.3044 350.202 97.6087 348.769 96.3807C347.366 95.1528 345.451 94.5388 343.024 94.5388C341.065 94.5388 339.413 94.9043 338.068 95.6352C336.723 96.3661 335.335 97.6526 333.902 99.4945C332.499 101.073 330.803 101.863 328.815 101.863C327.265 101.863 325.979 101.409 324.956 100.503C323.962 99.5676 323.465 98.3835 323.465 96.9509C323.465 95.986 323.684 95.0212 324.122 94.0564C325.204 91.2497 327.499 89.0423 331.008 87.4342C334.516 85.797 338.712 84.9783 343.594 84.9783C349.617 84.9783 354.441 86.411 358.066 89.2762C361.692 92.1414 363.504 95.9422 363.504 100.679V127.474C363.504 129.55 362.934 131.143 361.794 132.254C360.654 133.365 359.148 133.921 357.277 133.921C355.494 133.921 354.046 133.439 352.935 132.474C351.854 131.48 351.254 130.062 351.137 128.22V125.808H350.874C349.588 128.264 347.614 130.208 344.954 131.64C342.322 133.044 339.501 133.746 336.49 133.746ZM340.7 124.492C343.536 124.492 345.948 123.673 347.936 122.036C349.924 120.37 350.918 118.279 350.918 115.765V112.344L341.007 112.958C338.609 113.134 336.753 113.733 335.437 114.756C334.151 115.779 333.507 117.124 333.507 118.791C333.507 120.545 334.165 121.934 335.481 122.957C336.797 123.98 338.536 124.492 340.7 124.492ZM370.723 120.984V95.6352H368.267C366.747 95.6352 365.534 95.2113 364.627 94.3634C363.75 93.4863 363.312 92.3022 363.312 90.8111C363.312 89.32 363.75 88.1506 364.627 87.3027C365.534 86.4256 366.747 85.987 368.267 85.987H370.723V80.7682C370.723 78.6924 371.293 77.0698 372.433 75.9003C373.574 74.7016 375.138 74.1022 377.126 74.1022C379.114 74.1022 380.678 74.7016 381.819 75.9003C382.959 77.0698 383.529 78.6924 383.529 80.7682V85.987H388.046C389.566 85.987 390.765 86.4256 391.642 87.3027C392.519 88.1798 392.958 89.3493 392.958 90.8111C392.958 92.273 392.519 93.4424 391.642 94.3195C390.765 95.1967 389.566 95.6352 388.046 95.6352H383.529V118.133C383.529 119.8 383.836 121.013 384.45 121.773C385.064 122.533 386.058 122.972 387.432 123.089L388.265 123.176C389.903 123.352 391.116 123.805 391.905 124.536C392.724 125.267 393.133 126.363 393.133 127.825C393.133 129.667 392.315 131.085 390.677 132.079C389.04 133.044 386.833 133.526 384.055 133.526H383.617C375.021 133.526 370.723 129.345 370.723 120.984Z" fill="white"/>
<path fill-rule="evenodd" clip-rule="evenodd" d="M62.3163 66.3291C64.0715 64.557 66.9171 64.557 68.6722 66.3291L69.5 67.165L70.3278 66.3291C72.0829 64.557 74.9285 64.557 76.6837 66.3291C78.4388 68.1013 78.4388 70.9745 76.6837 72.7466L69.5 80L62.3163 72.7466C60.5612 70.9745 60.5612 68.1013 62.3163 66.3291Z" fill="#DF25AB" stroke="#DF25AB" stroke-width="4"/>
</svg>
