<svg width="52" height="52" viewBox="0 0 52 52" fill="none" xmlns="http://www.w3.org/2000/svg">
<path fill-rule="evenodd" clip-rule="evenodd" d="M33.4488 27.0794C33.4488 23.3162 30.3972 20.2646 26.6341 20.2646C22.8709 20.2646 19.8193 23.3162 19.8193 27.0794C19.8193 30.8425 22.8709 33.8941 26.6341 33.8941C30.3972 33.8941 33.4488 30.8425 33.4488 27.0794Z" stroke="#130F26" stroke-width="1.5" stroke-linecap="round" stroke-linejoin="round"/>
<path fill-rule="evenodd" clip-rule="evenodd" d="M26.6338 43.7669C44.0652 43.7669 46.1406 38.5441 46.1406 27.2273C46.1406 19.295 45.0915 15.0506 38.4843 13.226C37.8777 13.0345 37.2048 12.6696 36.6598 12.0697C35.7794 11.105 35.1362 8.14236 33.0106 7.24604C30.885 6.35201 22.3484 6.39306 20.257 7.24604C18.1678 8.10131 17.4882 11.105 16.6078 12.0697C16.0627 12.6696 15.3922 13.0345 14.7833 13.226C8.17608 15.0506 7.12695 19.295 7.12695 27.2273C7.12695 38.5441 9.20239 43.7669 26.6338 43.7669Z" stroke="#130F26" stroke-width="1.5" stroke-linecap="round" stroke-linejoin="round"/>
<path d="M37.2767 19.4998H37.2962" stroke="#130F26" stroke-width="1.5" stroke-linecap="round" stroke-linejoin="round"/>
</svg>
