<svg width="20" height="22" viewBox="0 0 20 22" fill="none" xmlns="http://www.w3.org/2000/svg">
<path d="M17.1316 7.12912V11.1391M19.1779 9.13392H15.0879M7.92259 20.8083C4.10859 20.8083 0.850586 20.2313 0.850586 17.9213C0.850586 15.6113 4.08759 13.5103 7.92259 13.5103C11.7366 13.5103 14.9946 15.5913 14.9946 17.9003C14.9946 20.2093 11.7576 20.8083 7.92259 20.8083ZM7.92259 10.216C10.4256 10.216 12.4556 8.18602 12.4556 5.68302C12.4556 3.17902 10.4256 1.15002 7.92259 1.15002C5.41959 1.15002 3.38959 3.17902 3.38959 5.68302C3.38059 8.17702 5.39659 10.207 7.89059 10.216H7.92259Z" stroke="#130F26" stroke-width="1.5" stroke-linecap="round" stroke-linejoin="round"/>
</svg>
