<svg width="22" height="25" viewBox="0 0 22 25" fill="none" xmlns="http://www.w3.org/2000/svg">
<path fill-rule="evenodd" clip-rule="evenodd" d="M11.9939 1.36364H18.3182C19.9499 1.36364 21.2727 2.68643 21.2727 4.31818C21.2727 5.79558 20.1884 7.01971 18.7721 7.23808L17.8934 22.1762C17.8001 23.7618 16.487 25 14.8986 25H6.37417C4.78574 25 3.47262 23.7619 3.37935 22.1762L2.50064 7.23808C1.08438 7.0197 0 5.79558 0 4.31818C0 2.68643 1.32279 1.36364 2.95454 1.36364H9.00611C9.07501 0.599114 9.71754 0 10.5 0C11.2825 0 11.925 0.599114 11.9939 1.36364ZM18.3182 3.36364H2.95454C2.42736 3.36364 2 3.791 2 4.31818C2 4.62669 2.14636 4.90101 2.37343 5.07551L2.36364 4.90909H4.36709H16.9056H18.9091L18.8993 5.07551C19.1264 4.90102 19.2727 4.62669 19.2727 4.31818C19.2727 3.791 18.8454 3.36364 18.3182 3.36364ZM5.3759 22.0587L4.50613 7.27273H16.7666L15.8968 22.0587C15.8657 22.5873 15.428 23 14.8986 23H6.37417C5.84469 23 5.40699 22.5873 5.3759 22.0587ZM7.09091 10.8182C7.09091 10.1655 7.62003 9.63636 8.27273 9.63636C8.92543 9.63636 9.45455 10.1655 9.45455 10.8182V19.0909C9.45455 19.7436 8.92543 20.2727 8.27273 20.2727C7.62003 20.2727 7.09091 19.7436 7.09091 19.0909V10.8182ZM13 9.63636C12.3473 9.63636 11.8182 10.1655 11.8182 10.8182V19.0909C11.8182 19.7436 12.3473 20.2727 13 20.2727C13.6527 20.2727 14.1818 19.7436 14.1818 19.0909V10.8182C14.1818 10.1655 13.6527 9.63636 13 9.63636Z" fill="white"/>
</svg>
